<svg width="100%" height="100%" viewBox="0 0 3488 848" version="1.1" xmlns="http://www.w3.org/2000/svg" xmlns:xlink="http://www.w3.org/1999/xlink" xml:space="preserve" xmlns:serif="http://www.serif.com/" style="fill-rule:evenodd;clip-rule:evenodd;stroke-linecap:round;stroke-linejoin:round;stroke-miterlimit:1.5;">
    <g transform="matrix(1,0,0,1,2561.71,210.241)">
        <g id="_2" serif:id="2" transform="matrix(1,0,0,1,-2630.12,-559.407)">
            <g transform="matrix(7.90479e-17,1.29095,-1.29095,7.90479e-17,1448.92,152.957)">
                <circle cx="480.875" cy="740.901" r="327.847" style="fill:rgb(0,36,46);"/>
            </g>
            <g transform="matrix(1,0,0,1,-3.43554,6.56446)">
                <g>
                    <g transform="matrix(1.20992,0,0,1.20992,-53.0015,-112.979)">
                        <path d="M583.253,963.663C666.567,917.821 723.076,829.182 723.076,727.449C723.076,578.754 602.354,458.032 453.659,458.032C304.963,458.032 184.242,578.754 184.242,727.449C184.242,876.144 304.963,996.866 453.659,996.866C455.459,996.866 457.255,996.848 459.047,996.813L459.047,1011.69C457.255,1011.73 455.459,1011.74 453.659,1011.74C296.753,1011.74 169.365,884.355 169.365,727.449C169.365,570.543 296.753,443.155 453.659,443.155C610.565,443.155 737.953,570.543 737.953,727.449C737.953,836.383 676.551,931.09 586.5,978.817C582.33,981.178 577.531,977.295 576.999,974.296C575.913,968.183 579.791,965.568 583.253,963.663Z" style="fill:rgb(121,191,68);"/>
                    </g>
                    <path d="M493.388,1099.03L493.388,941.256" style="fill:none;stroke:rgb(121,191,68);stroke-width:18px;"/>
                    <g transform="matrix(1.11127,0,0,1.11127,326.694,614.739)">
                        <path d="M9.38,99.663L9,75.946L9.786,26.881C9.832,23.985 11.327,21.304 13.766,19.743C16.206,18.181 19.266,17.946 21.915,19.117C54.134,33.761 140.568,78.554 140.568,137.892L140.613,137.892L140.613,209.386C138.036,207.643 135.233,205.895 132.228,204.121C100.893,185.626 45.43,163.233 9.38,99.663ZM140.613,230.089L140.613,248.75C140.613,251.665 139.143,254.384 136.703,255.98C134.264,257.575 131.184,257.833 128.513,256.665C96.931,242.434 14.127,199.427 10.037,137.892L9.992,137.892L9.868,130.152C40.517,171.734 78.858,193.13 107.735,208.962C119.209,215.253 129.092,220.573 136.078,226.08C137.79,227.43 139.33,228.745 140.613,230.089Z" style="fill:rgb(121,191,68);"/>
                    </g>
                    <g transform="matrix(-1.11127,0,0,1.11127,661.827,546.483)">
                        <path d="M9.38,99.663L9,75.946L9.786,26.881C9.832,23.985 11.327,21.304 13.766,19.743C16.206,18.181 19.266,17.946 21.915,19.117C54.134,33.761 140.568,78.554 140.568,137.892L140.613,137.892L140.613,209.386C138.036,207.643 135.233,205.895 132.228,204.121C100.893,185.626 45.43,163.233 9.38,99.663ZM140.613,230.089L140.613,248.75C140.613,251.665 139.143,254.384 136.703,255.98C134.264,257.575 131.184,257.833 128.513,256.665C96.931,242.434 14.127,199.427 10.037,137.892L9.992,137.892L9.868,130.152C40.517,171.734 78.858,193.13 107.735,208.962C119.209,215.253 129.092,220.573 136.078,226.08C137.79,227.43 139.33,228.745 140.613,230.089Z" style="fill:rgb(121,191,68);"/>
                    </g>
                </g>
            </g>
        </g>
        <g transform="matrix(1,0,0,1,-2637.6,-590.148)">
            <g transform="matrix(395.833,0,0,395.833,1076.88,738.799)">
                <path d="M0.138,-0C0.12,-0 0.106,-0.005 0.097,-0.014C0.087,-0.024 0.083,-0.038 0.083,-0.056L0.083,-0.649C0.083,-0.667 0.087,-0.681 0.097,-0.691C0.106,-0.7 0.12,-0.705 0.138,-0.705L0.331,-0.705C0.447,-0.705 0.537,-0.675 0.6,-0.614C0.663,-0.554 0.694,-0.467 0.694,-0.353C0.694,-0.296 0.686,-0.246 0.67,-0.202C0.654,-0.158 0.631,-0.121 0.6,-0.092C0.569,-0.062 0.531,-0.039 0.486,-0.023C0.441,-0.008 0.39,-0 0.331,-0L0.138,-0ZM0.186,-0.087L0.325,-0.087C0.369,-0.087 0.407,-0.092 0.44,-0.103C0.472,-0.115 0.499,-0.131 0.521,-0.153C0.543,-0.175 0.559,-0.203 0.57,-0.236C0.581,-0.27 0.586,-0.309 0.586,-0.353C0.586,-0.442 0.564,-0.508 0.521,-0.552C0.477,-0.596 0.412,-0.618 0.325,-0.618L0.186,-0.618L0.186,-0.087Z" style="fill:rgb(0,36,46);fill-rule:nonzero;"/>
            </g>
            <g transform="matrix(395.833,0,0,395.833,1374.15,738.799)">
                <path d="M0.138,-0C0.12,-0 0.106,-0.005 0.097,-0.014C0.087,-0.024 0.083,-0.038 0.083,-0.056L0.083,-0.649C0.083,-0.667 0.087,-0.681 0.097,-0.691C0.106,-0.7 0.12,-0.705 0.138,-0.705L0.503,-0.705C0.517,-0.705 0.527,-0.701 0.535,-0.694C0.542,-0.687 0.546,-0.677 0.546,-0.664C0.546,-0.65 0.542,-0.64 0.535,-0.632C0.527,-0.625 0.517,-0.621 0.503,-0.621L0.182,-0.621L0.182,-0.4L0.481,-0.4C0.496,-0.4 0.506,-0.396 0.514,-0.389C0.521,-0.382 0.524,-0.372 0.524,-0.358C0.524,-0.344 0.521,-0.334 0.514,-0.327C0.506,-0.32 0.496,-0.316 0.481,-0.316L0.182,-0.316L0.182,-0.084L0.503,-0.084C0.517,-0.084 0.527,-0.08 0.535,-0.073C0.542,-0.066 0.546,-0.056 0.546,-0.042C0.546,-0.028 0.542,-0.018 0.535,-0.011C0.527,-0.004 0.517,-0 0.503,-0L0.138,-0Z" style="fill:rgb(0,36,46);fill-rule:nonzero;"/>
            </g>
            <g transform="matrix(395.833,0,0,395.833,1605.32,738.799)">
                <path d="M0.35,0.007C0.335,0.007 0.323,0.004 0.314,-0.003C0.304,-0.01 0.296,-0.021 0.29,-0.035L0.021,-0.644C0.015,-0.658 0.014,-0.67 0.017,-0.68C0.019,-0.69 0.025,-0.698 0.034,-0.704C0.042,-0.71 0.052,-0.712 0.064,-0.712C0.08,-0.712 0.091,-0.709 0.099,-0.702C0.107,-0.695 0.114,-0.685 0.119,-0.672L0.371,-0.088L0.334,-0.088L0.584,-0.673C0.59,-0.686 0.597,-0.695 0.606,-0.702C0.614,-0.709 0.625,-0.712 0.64,-0.712C0.652,-0.712 0.662,-0.709 0.669,-0.704C0.677,-0.698 0.682,-0.69 0.684,-0.68C0.686,-0.67 0.684,-0.658 0.678,-0.644L0.41,-0.035C0.404,-0.021 0.396,-0.01 0.387,-0.003C0.378,0.004 0.366,0.007 0.35,0.007Z" style="fill:rgb(0,36,46);fill-rule:nonzero;"/>
            </g>
            <g transform="matrix(395.833,0,0,395.833,1882.4,738.799)">
                <path d="M0.134,0.007C0.117,0.007 0.105,0.003 0.096,-0.007C0.087,-0.016 0.083,-0.029 0.083,-0.046L0.083,-0.652C0.083,-0.67 0.087,-0.683 0.096,-0.692C0.106,-0.701 0.118,-0.705 0.135,-0.705L0.374,-0.705C0.45,-0.705 0.509,-0.687 0.55,-0.651C0.591,-0.615 0.612,-0.564 0.612,-0.498C0.612,-0.455 0.603,-0.419 0.584,-0.388C0.565,-0.358 0.538,-0.334 0.503,-0.318C0.467,-0.302 0.424,-0.294 0.374,-0.294L0.383,-0.308L0.409,-0.308C0.436,-0.308 0.459,-0.301 0.479,-0.288C0.499,-0.274 0.516,-0.253 0.532,-0.224L0.618,-0.064C0.625,-0.052 0.628,-0.041 0.627,-0.03C0.627,-0.019 0.623,-0.01 0.615,-0.003C0.608,0.004 0.597,0.007 0.583,0.007C0.568,0.007 0.557,0.004 0.547,-0.002C0.538,-0.008 0.53,-0.018 0.523,-0.031L0.418,-0.225C0.404,-0.251 0.388,-0.269 0.37,-0.278C0.352,-0.286 0.328,-0.291 0.299,-0.291L0.186,-0.291L0.186,-0.046C0.186,-0.029 0.181,-0.016 0.173,-0.007C0.164,0.003 0.151,0.007 0.134,0.007ZM0.186,-0.369L0.357,-0.369C0.408,-0.369 0.446,-0.38 0.472,-0.401C0.498,-0.423 0.511,-0.454 0.511,-0.496C0.511,-0.538 0.498,-0.569 0.472,-0.59C0.446,-0.611 0.408,-0.622 0.357,-0.622L0.186,-0.622L0.186,-0.369Z" style="fill:rgb(0,36,46);fill-rule:nonzero;"/>
            </g>
            <g transform="matrix(395.833,0,0,395.833,2150.38,738.799)">
                <path d="M0.138,-0C0.12,-0 0.106,-0.005 0.097,-0.014C0.087,-0.024 0.083,-0.038 0.083,-0.056L0.083,-0.649C0.083,-0.667 0.087,-0.681 0.097,-0.691C0.106,-0.7 0.12,-0.705 0.138,-0.705L0.503,-0.705C0.517,-0.705 0.527,-0.701 0.535,-0.694C0.542,-0.687 0.546,-0.677 0.546,-0.664C0.546,-0.65 0.542,-0.64 0.535,-0.632C0.527,-0.625 0.517,-0.621 0.503,-0.621L0.182,-0.621L0.182,-0.4L0.481,-0.4C0.496,-0.4 0.506,-0.396 0.514,-0.389C0.521,-0.382 0.524,-0.372 0.524,-0.358C0.524,-0.344 0.521,-0.334 0.514,-0.327C0.506,-0.32 0.496,-0.316 0.481,-0.316L0.182,-0.316L0.182,-0.084L0.503,-0.084C0.517,-0.084 0.527,-0.08 0.535,-0.073C0.542,-0.066 0.546,-0.056 0.546,-0.042C0.546,-0.028 0.542,-0.018 0.535,-0.011C0.527,-0.004 0.517,-0 0.503,-0L0.138,-0Z" style="fill:rgb(0,36,46);fill-rule:nonzero;"/>
            </g>
            <g transform="matrix(395.833,0,0,395.833,2383.53,738.799)">
                <path d="M0.135,-0C0.118,-0 0.106,-0.005 0.096,-0.014C0.087,-0.024 0.083,-0.037 0.083,-0.053L0.083,-0.656C0.083,-0.674 0.087,-0.687 0.096,-0.696C0.105,-0.704 0.117,-0.709 0.134,-0.709C0.151,-0.709 0.163,-0.704 0.172,-0.696C0.181,-0.687 0.186,-0.674 0.186,-0.656L0.186,-0.089L0.496,-0.089C0.511,-0.089 0.522,-0.085 0.53,-0.077C0.538,-0.07 0.542,-0.059 0.542,-0.045C0.542,-0.031 0.538,-0.02 0.53,-0.012C0.522,-0.004 0.511,-0 0.496,-0L0.135,-0Z" style="fill:rgb(0,36,46);fill-rule:nonzero;"/>
            </g>
            <g transform="matrix(395.833,0,0,395.833,2602.03,738.799)">
            </g>
            <g transform="matrix(395.833,0,0,395.833,3601.51,1151.3)">
            </g>
            <text x="1076.88px" y="1151.3px" style="font-family:'Nunito-ExtraLight', 'Nunito';font-weight:200;font-size:395.833px;fill:rgb(0,36,46);">F<tspan x="1281.13px " y="1151.3px ">O</tspan>UND<tspan x="2436.18px 2689.91px " y="1151.3px 1151.3px ">AT</tspan>ION</text>
        </g>
    </g>
</svg>
