<svg xmlns="http://www.w3.org/2000/svg" role="img" viewBox="125.30 -14.70 3234.40 876.90"><style>svg {clip-rule:evenodd;fill-rule:evenodd;stroke-linecap:round;stroke-linejoin:round;stroke-miterlimit:1.5}</style><g id="g16" transform="translate(2561.71 210.241)"><g id="_2" transform="translate(-2433.477 -475.467) scale(.89151)"><g id="g1" transform="rotate(90 647.982 800.938) scale(1.29095)"><circle id="circle1" cx="480.875" cy="740.901" r="327.847" fill="#00242e"/></g><g id="g6" transform="translate(-3.436 6.564)"><g id="g5"><g id="g2" transform="translate(-53.002 -112.979) scale(1.20992)"><path id="path1" fill="#79bf44" d="M583.253 963.663c83.314-45.842 139.823-134.481 139.823-236.214 0-148.695-120.722-269.417-269.417-269.417-148.696 0-269.417 120.722-269.417 269.417s120.721 269.417 269.417 269.417c1.8 0 3.596-.018 5.388-.053v14.877c-1.792.04-3.588.05-5.388.05-156.906 0-284.294-127.385-284.294-284.291s127.388-284.294 284.294-284.294c156.906 0 284.294 127.388 284.294 284.294 0 108.934-61.402 203.641-151.453 251.368-4.17 2.361-8.969-1.522-9.501-4.521-1.086-6.113 2.792-8.728 6.254-10.633z"/></g><path id="path2" fill="none" stroke="#79bf44" stroke-width="18" d="M493.388 1099.03V941.256"/><g id="g3" transform="translate(326.694 614.739) scale(1.11127)"><path id="path3" fill="#79bf44" d="M9.38 99.663L9 75.946l.786-49.065c.046-2.896 1.541-5.577 3.98-7.138 2.44-1.562 5.5-1.797 8.149-.626 32.219 14.644 118.653 59.437 118.653 118.775h.045v71.494c-2.577-1.743-5.38-3.491-8.385-5.265C100.893 185.626 45.43 163.233 9.38 99.663zm131.233 130.426v18.661c0 2.915-1.47 5.634-3.91 7.23-2.439 1.595-5.519 1.853-8.19.685-31.582-14.231-114.386-57.238-118.476-118.773h-.045l-.124-7.74c30.649 41.582 68.99 62.978 97.867 78.81 11.474 6.291 21.357 11.611 28.343 17.118 1.712 1.35 3.252 2.665 4.535 4.009z"/></g><g id="g4" transform="matrix(-1.11127 0 0 1.11127 661.827 546.483)"><path id="path4" fill="#79bf44" d="M9.38 99.663L9 75.946l.786-49.065c.046-2.896 1.541-5.577 3.98-7.138 2.44-1.562 5.5-1.797 8.149-.626 32.219 14.644 118.653 59.437 118.653 118.775h.045v71.494c-2.577-1.743-5.38-3.491-8.385-5.265C100.893 185.626 45.43 163.233 9.38 99.663zm131.233 130.426v18.661c0 2.915-1.47 5.634-3.91 7.23-2.439 1.595-5.519 1.853-8.19.685-31.582-14.231-114.386-57.238-118.476-118.773h-.045l-.124-7.74c30.649 41.582 68.99 62.978 97.867 78.81 11.474 6.291 21.357 11.611 28.343 17.118 1.712 1.35 3.252 2.665 4.535 4.009z"/></g></g></g></g><g id="g15" transform="translate(-2637.6 -590.148)"><g id="g7" transform="translate(1157.51 745.925) scale(352.89091)"><path id="path6" fill="#00242e" fill-rule="nonzero" d="M.138 0C.12 0 .106-.005.097-.014.087-.024.083-.038.083-.056v-.593c0-.018.004-.032.014-.042C.106-.7.12-.705.138-.705h.193c.116 0 .206.03.269.091.063.06.094.147.094.261 0 .057-.008.107-.024.151s-.039.081-.07.11c-.031.03-.069.053-.114.069C.441-.008.39 0 .331 0zm.048-.087h.139c.044 0 .082-.005.115-.016.032-.012.059-.028.081-.05.022-.022.038-.05.049-.083.011-.034.016-.073.016-.117 0-.089-.022-.155-.065-.199C.477-.596.412-.618.325-.618H.186z"/></g><g id="g8" transform="translate(1422.53 745.925) scale(352.89091)"><path id="path7" fill="#00242e" fill-rule="nonzero" d="M.138 0C.12 0 .106-.005.097-.014.087-.024.083-.038.083-.056v-.593c0-.018.004-.032.014-.042C.106-.7.12-.705.138-.705h.365c.014 0 .024.004.032.011.007.007.011.017.011.03 0 .014-.004.024-.011.032-.008.007-.018.011-.032.011H.182V-.4h.299c.015 0 .025.004.033.011.007.007.01.017.01.031 0 .014-.003.024-.01.031-.008.007-.018.011-.033.011H.182v.232h.321c.014 0 .024.004.032.011.007.007.011.017.011.031 0 .014-.004.024-.011.031C.527-.004.517 0 .503 0z"/></g><g id="g9" transform="translate(1628.621 745.925) scale(352.89091)"><path id="path8" fill="#00242e" fill-rule="nonzero" d="M.35.007C.335.007.323.004.314-.003.304-.01.296-.021.29-.035L.021-.644C.015-.658.014-.67.017-.68c.002-.01.008-.018.017-.024.008-.006.018-.008.03-.008.016 0 .027.003.035.01.008.007.015.017.02.03l.252.584H.334l.25-.585C.59-.686.597-.695.606-.702c.008-.007.019-.01.034-.01.012 0 .022.003.029.008.008.006.013.014.015.024s0 .022-.006.036L.41-.035C.404-.021.396-.01.387-.003.378.004.366.007.35.007z"/></g><g id="g10" transform="translate(1875.642 745.925) scale(352.89091)"><path id="path9" fill="#00242e" fill-rule="nonzero" d="M.134.007C.117.007.105.003.096-.007.087-.016.083-.029.083-.046v-.606c0-.018.004-.031.013-.04.01-.009.022-.013.039-.013h.239c.076 0 .135.018.176.054.041.036.062.087.062.153 0 .043-.009.079-.028.11-.019.03-.046.054-.081.07-.036.016-.079.024-.129.024l.009-.014h.026c.027 0 .05.007.07.02.02.014.037.035.053.064l.086.16c.007.012.01.023.009.034 0 .011-.004.02-.012.027-.007.007-.018.01-.032.01C.568.007.557.004.547-.002.538-.008.53-.018.523-.031L.418-.225C.404-.251.388-.269.37-.278.352-.286.328-.291.299-.291H.186v.245c0 .017-.005.03-.013.039C.164.003.151.007.134.007zm.052-.376h.171c.051 0 .089-.011.115-.032.026-.022.039-.053.039-.095S.498-.569.472-.59C.446-.611.408-.622.357-.622H.186z"/></g><g id="g11" transform="translate(2114.55 745.925) scale(352.89091)"><path id="path10" fill="#00242e" fill-rule="nonzero" d="M.138 0C.12 0 .106-.005.097-.014.087-.024.083-.038.083-.056v-.593c0-.018.004-.032.014-.042C.106-.7.12-.705.138-.705h.365c.014 0 .024.004.032.011.007.007.011.017.011.03 0 .014-.004.024-.011.032-.008.007-.018.011-.032.011H.182V-.4h.299c.015 0 .025.004.033.011.007.007.01.017.01.031 0 .014-.003.024-.01.031-.008.007-.018.011-.033.011H.182v.232h.321c.014 0 .024.004.032.011.007.007.011.017.011.031 0 .014-.004.024-.011.031C.527-.004.517 0 .503 0z"/></g><g id="g12" transform="translate(2322.407 745.925) scale(352.89091)"><path id="path11" fill="#00242e" fill-rule="nonzero" d="M.135 0C.118 0 .106-.005.096-.014.087-.024.083-.037.083-.053v-.603c0-.018.004-.031.013-.04.009-.008.021-.013.038-.013.017 0 .029.005.038.013.009.009.014.022.014.04v.567h.31c.015 0 .026.004.034.012.008.007.012.018.012.032 0 .014-.004.025-.012.033S.511 0 .496 0z"/></g><path id="path16" fill="#00242e" stroke-width=".892" d="M1200.209 1115.7928q-4.2347 0-6.7049-2.1173-2.1173-2.4702-2.1173-6.7049V873.70971q0-4.23469 2.1173-6.35203 2.4702-2.47024 6.7049-2.47024h131.9812q3.5289 0 5.2933 1.76445 2.1174 1.76446 2.1174 4.94048 0 3.52891-2.1174 5.29336-1.7644 1.76446-5.2933 1.76446h-125.982v101.98547h118.9242q3.5289 0 5.2934 1.76448 2.1173 1.7644 2.1173 4.94042 0 3.52897-2.1173 5.29337-1.7645 1.76448-5.2934 1.76448h-118.9242v112.57219q0 8.8222-5.9992 8.8222z"/><path id="path17" fill="#00242e" stroke-width=".892" d="M1471.9352 1116.4987q-33.5247 0-57.8741-15.5272-24.3495-15.5272-37.7594-44.1114-13.057-28.5841-13.057-67.75505 0-29.64285 7.4108-52.93364 7.4107-23.6437 21.5263-39.87667 14.1156-16.58589 34.2304-25.40815 20.1148-8.82228 45.523-8.82228 33.8775 0 58.2269 15.52721 24.7024 15.17431 37.7594 43.75847 13.057 28.23127 13.057 67.40219 0 29.64282-7.7636 53.28642-7.4107 23.6438-21.5264 40.2296-14.1156 16.586-34.2304 25.4082-20.1148 8.8223-45.5229 8.8223zm0-14.4685q29.6428 0 50.4634-13.0571 20.8206-13.4098 31.7602-38.4651 10.9396-25.4081 10.9396-61.40295 0-53.63943-24.3495-82.92937-23.9966-29.64284-68.8137-29.64284-29.29 0-50.1105 13.40985-20.8207 13.05697-31.7603 38.46512-10.9395 25.05525-10.9395 60.69724 0 53.28655 24.3494 83.28225 24.3495 29.6429 68.4609 29.6429z"/><path id="path29" fill="#00242e" stroke-width=".892" d="M2159.7193 1113.6755q-4.2347 0-6.705-2.1173-2.1174-2.4703-2.1174-6.705V873.70971q0-4.23469 2.1174-6.35203 2.4703-2.47024 6.705-2.47024h67.755q58.5799 0 89.9872 31.76018 31.7602 31.4073 31.7602 92.45743 0 30.34855-8.1165 53.63945-8.1165 23.2908-23.6437 39.1709-15.5272 15.5271-38.1122 23.6437-22.585 8.1164-51.875 8.1164zm5.9991-13.7627h60.3444q26.8197 0 46.9345-7.0578 20.1148-7.0579 33.5246-20.8205 13.4099-13.7628 20.1148-34.5834 6.7049-20.8205 6.7049-48.34605 0-55.05099-26.8197-82.57648-26.8197-27.87838-80.4591-27.87838h-60.3444z"/><path id="path28" fill="#00242e" stroke-width=".892" d="M1899.6385 1115.7928c-2.1173 0-3.8818-.7058-5.2933-2.1173-1.1763-1.4115-1.7644-3.2936-1.7644-5.6462V870.88659c0-2.58787.5881-4.58759 1.7644-5.99915 1.1763-1.41156 2.7055-2.11735 4.5876-2.11735 2.1173 0 3.6466.35289 4.5876 1.05868 1.1763.70578 2.3526 1.99971 3.5288 3.88179l162.374 219.37154-.045 11.7721V870.5337c0-2.58787.5882-4.46996 1.7645-5.64626 1.4116-1.41156 3.176-2.11735 5.2934-2.11735 2.1173 0 3.7641.70579 4.9404 2.11735 1.1764 1.1763 1.7645 3.05839 1.7645 5.64626v237.1427c0 2.5879-.5881 4.5876-1.7645 5.9991-.941 1.4115-2.3526 2.1173-4.2347 2.1173-1.6468 0-3.176-.4705-4.5875-1.4115-1.1764-.7058-2.3527-1.8821-3.5289-3.5289l-162.567-221.68727-.1157-9.45628v228.32045c0 2.3526-.5882 4.2347-1.7645 5.6462-1.1764 1.4115-2.8232 2.1173-4.9405 2.1173z"/><path id="path18" fill="#00242e" stroke-width=".892" d="M1731.6627 1116.4987q-23.2908 0-41.2882-6.3521-17.6445-6.352-29.6429-18.7032-11.6454-12.704-17.9974-31.0544-5.9992-18.3504-5.9992-42.3469V870.5337q0-3.88181 1.7645-5.64626 2.1174-2.11735 5.6463-2.11735 3.5288 0 5.2933 2.11735 2.1174 1.76445 2.1174 5.64626v145.391q0 43.4057 20.1148 64.932 20.4676 21.1735 59.9914 21.1735 39.8767 0 59.9915-21.1735 20.1148-21.5263 20.1148-64.932v-145.391q0-3.88181 1.7644-5.64626 2.1173-2.11735 5.6463-2.11735 3.5289 0 5.2934 2.11735 2.1173 1.76445 2.1173 5.64626v147.5084q0 31.7602-10.9397 53.9924-10.5867 21.8791-31.7601 33.1717-21.1735 11.2925-52.2279 11.2925z"/><path id="path24" fill="#00242e" stroke-width=".892" d="M2698.946 1115.7928q-3.5288 0-5.6462-2.1173-1.7645-2.1173-1.7645-5.6462V878.65019h-89.2814q-3.5289 0-5.6463-1.76446-2.1173-2.11735-2.1173-5.29336 0-3.17602 2.1173-4.94048 2.1174-1.76445 5.6463-1.76445h193.3842q3.8818 0 5.6463 1.76445 2.1174 1.76446 2.1174 4.94048 0 3.52891-2.1174 5.29336-1.7645 1.76446-5.6463 1.76446h-89.2814v229.37911q0 3.5289-1.7644 5.6462-1.7645 2.1173-5.6463 2.1173z"/><path id="path19" fill="#00242e" stroke-width=".892" d="M2391.2242 1115.7928c-2.3526 0-4.1171-.4705-5.2933-1.4115-1.1764-.941-1.7645-2.2349-1.7645-3.8817 0-1.8821.4705-3.8819 1.4116-5.9992l100.9268-234.3196c1.1763-2.58786 2.5879-4.46995 4.2347-5.64625 1.6468-1.17631 3.2936-1.76446 4.9404-1.76446 1.8821 0 3.6466.58815 5.2934 1.76446 1.6469 1.1763 2.9408 3.05839 3.8818 5.64625l100.9268 234.3196c.941 2.1173 1.4116 4.1171 1.4116 5.9992 0 1.6468-.4706 2.9407-1.4116 3.8817-.941.941-2.5878 1.4115-4.9405 1.4115-2.3526 0-4.3522-.7058-5.9991-2.1173-1.4116-1.4115-2.5879-3.1759-3.5289-5.2933l-28.5842-66.6964 1.2938 2.9701-136.9803-.2058 1.235-2.7643-28.5841 66.6964c-.9411 2.5878-2.235 4.4699-3.8818 5.6462-1.6468 1.1763-3.176 1.7644-4.5876 1.7644zm104.1028-230.79058l-63.1674 148.21418.6764-2.1174 125.3938.2059.9705 1.9115-63.1675-148.21418z"/><path id="path27" fill="#00242e" stroke-width=".892" d="M3190.8757 1115.7928c-2.1174 0-3.8818-.7058-5.2934-2.1173-1.1763-1.4115-1.7645-3.2936-1.7645-5.6462V870.88659c0-2.58787.5882-4.58759 1.7645-5.99915 1.1763-1.41156 2.7055-2.11735 4.5876-2.11735 2.1173 0 3.6465.35289 4.5875 1.05868 1.1764.70578 2.3527 1.99971 3.529 3.88179l161.7581 219.97064-.072 9.8846.6442-227.0321c.01-2.58786.5881-4.46996 1.7644-5.64626 1.4115-1.41156 3.176-2.11735 5.2934-2.11735 2.1173 0 3.7641.70579 4.9405 2.11735 1.1763 1.1763 1.7644 3.05839 1.7644 5.64626v237.1427c0 2.5879-.5881 4.5876-1.7644 5.9991-.9411 1.4115-2.3526 2.1173-4.2347 2.1173-1.6469 0-3.1761-.4705-4.5877-1.4115-1.1762-.7058-2.3525-1.8821-3.5288-3.5289L3197.619 888.0442l-.038-7.8033v227.7884c0 2.3526-.5881 4.2347-1.7645 5.6462-1.1762 1.4115-2.823 2.1173-4.9404 2.1173z"/><path id="path25" fill="#00242e" stroke-width=".892" d="M3017.2535 1116.4987q-33.5246 0-57.8741-15.5272t-37.7593-44.1114q-13.057-28.5841-13.057-67.75505 0-29.64285 7.4108-52.93364 7.4107-23.6437 21.5263-39.87667 14.1156-16.58589 34.2304-25.40815 20.1148-8.82228 45.5229-8.82228 33.8775 0 58.227 15.52721 24.7024 15.17431 37.7593 43.75847 13.057 28.23127 13.057 67.40219 0 29.64282-7.7636 53.28642-7.4107 23.6438-21.5263 40.2296-14.1156 16.586-34.2304 25.4082-20.1148 8.8223-45.523 8.8223zm0-14.4685q29.6429 0 50.4635-13.0571 20.8205-13.4098 31.7601-38.4651 10.9397-25.4081 10.9397-61.40295 0-53.63943-24.3495-82.92937-23.9967-29.64284-68.8138-29.64284-29.2899 0-50.1105 13.40985-20.8206 13.05697-31.7602 38.46512-10.9396 25.05525-10.9396 60.69724 0 53.28655 24.3495 83.28225 24.3494 29.6429 68.4608 29.6429z"/><path id="path20" fill="#00242e" stroke-width=".892" d="M2843.6315 1115.7928q-3.5289 0-5.6463-2.1173-1.7645-2.1173-1.7645-5.6462V870.5337q0-3.88181 1.7645-5.64626 2.1174-2.11735 5.6463-2.11735 3.5288 0 5.2933 2.11735 2.1174 1.76445 2.1174 5.64626v237.4956q0 3.5289-1.7645 5.6462-1.7644 2.1173-5.6462 2.1173z"/></g></g></svg>