<?xml version="1.0" encoding="UTF-8" standalone="no"?>
<svg
   width="3108.5457"
   height="754.63873"
   viewBox="0 0 3108.5457 754.63873"
   version="1.1"
   xml:space="preserve"
   style="clip-rule:evenodd;fill-rule:evenodd;stroke-linecap:round;stroke-linejoin:round;stroke-miterlimit:1.5"
   id="svg16"
   sodipodi:docname="drfLight.svg"
   xmlns:inkscape="http://www.inkscape.org/namespaces/inkscape"
   xmlns:sodipodi="http://sodipodi.sourceforge.net/DTD/sodipodi-0.dtd"
   xmlns="http://www.w3.org/2000/svg"
   xmlns:svg="http://www.w3.org/2000/svg"
   xmlns:serif="http://www.serif.com/"><sodipodi:namedview
   id="namedview1"
   pagecolor="#ffffff"
   bordercolor="#000000"
   borderopacity="0.25"
   inkscape:showpageshadow="2"
   inkscape:pageopacity="0.0"
   inkscape:pagecheckerboard="0"
   inkscape:deskcolor="#d1d1d1"><inkscape:page
     x="0"
     y="0"
     width="3108.5457"
     height="754.63873"
     id="page2"
     margin="0"
     bleed="0" /></sodipodi:namedview><defs
   id="defs16" />
    <g
   transform="translate(2371.7662,162.98379)"
   id="g16">
        <g
   id="_2"
   serif:id="2"
   transform="matrix(0.89151464,0,0,0.89151464,-2433.4766,-475.46726)">
            <g
   transform="matrix(0,1.29095,-1.29095,0,1448.92,152.957)"
   id="g1">
                <circle
   cx="480.875"
   cy="740.901"
   r="327.84698"
   style="fill:#00242e"
   id="circle1" />
            </g>
            <g
   transform="translate(-3.43554,6.56446)"
   id="g6">
                <g
   id="g5">
                    <g
   transform="matrix(1.20992,0,0,1.20992,-53.0015,-112.979)"
   id="g2">
                        <path
   d="m 583.253,963.663 c 83.314,-45.842 139.823,-134.481 139.823,-236.214 0,-148.695 -120.722,-269.417 -269.417,-269.417 -148.696,0 -269.417,120.722 -269.417,269.417 0,148.695 120.721,269.417 269.417,269.417 1.8,0 3.596,-0.018 5.388,-0.053 v 14.877 c -1.792,0.04 -3.588,0.05 -5.388,0.05 -156.906,0 -284.294,-127.385 -284.294,-284.291 0,-156.906 127.388,-284.294 284.294,-284.294 156.906,0 284.294,127.388 284.294,284.294 0,108.934 -61.402,203.641 -151.453,251.368 -4.17,2.361 -8.969,-1.522 -9.501,-4.521 -1.086,-6.113 2.792,-8.728 6.254,-10.633 z"
   style="fill:#79bf44"
   id="path1" />
                    </g>
                    <path
   d="M 493.388,1099.03 V 941.256"
   style="fill:none;stroke:#79bf44;stroke-width:18px"
   id="path2" />
                    <g
   transform="matrix(1.11127,0,0,1.11127,326.694,614.739)"
   id="g3">
                        <path
   d="M 9.38,99.663 9,75.946 9.786,26.881 c 0.046,-2.896 1.541,-5.577 3.98,-7.138 2.44,-1.562 5.5,-1.797 8.149,-0.626 32.219,14.644 118.653,59.437 118.653,118.775 h 0.045 v 71.494 c -2.577,-1.743 -5.38,-3.491 -8.385,-5.265 C 100.893,185.626 45.43,163.233 9.38,99.663 Z m 131.233,130.426 v 18.661 c 0,2.915 -1.47,5.634 -3.91,7.23 -2.439,1.595 -5.519,1.853 -8.19,0.685 C 96.931,242.434 14.127,199.427 10.037,137.892 H 9.992 l -0.124,-7.74 c 30.649,41.582 68.99,62.978 97.867,78.81 11.474,6.291 21.357,11.611 28.343,17.118 1.712,1.35 3.252,2.665 4.535,4.009 z"
   style="fill:#79bf44"
   id="path3" />
                    </g>
                    <g
   transform="matrix(-1.11127,0,0,1.11127,661.827,546.483)"
   id="g4">
                        <path
   d="M 9.38,99.663 9,75.946 9.786,26.881 c 0.046,-2.896 1.541,-5.577 3.98,-7.138 2.44,-1.562 5.5,-1.797 8.149,-0.626 32.219,14.644 118.653,59.437 118.653,118.775 h 0.045 v 71.494 c -2.577,-1.743 -5.38,-3.491 -8.385,-5.265 C 100.893,185.626 45.43,163.233 9.38,99.663 Z m 131.233,130.426 v 18.661 c 0,2.915 -1.47,5.634 -3.91,7.23 -2.439,1.595 -5.519,1.853 -8.19,0.685 C 96.931,242.434 14.127,199.427 10.037,137.892 H 9.992 l -0.124,-7.74 c 30.649,41.582 68.99,62.978 97.867,78.81 11.474,6.291 21.357,11.611 28.343,17.118 1.712,1.35 3.252,2.665 4.535,4.009 z"
   style="fill:#79bf44"
   id="path4" />
                    </g>
                </g>
            </g>
        </g>
        <g
   transform="translate(-2637.6,-590.148)"
   id="g15">
            <g
   transform="matrix(352.89091,0,0,352.89091,1157.5092,745.92482)"
   id="g7"
   style="fill:#ffffff">
                <path
   d="M 0.138,0 C 0.12,0 0.106,-0.005 0.097,-0.014 0.087,-0.024 0.083,-0.038 0.083,-0.056 v -0.593 c 0,-0.018 0.004,-0.032 0.014,-0.042 C 0.106,-0.7 0.12,-0.705 0.138,-0.705 h 0.193 c 0.116,0 0.206,0.03 0.269,0.091 0.063,0.06 0.094,0.147 0.094,0.261 0,0.057 -0.008,0.107 -0.024,0.151 -0.016,0.044 -0.039,0.081 -0.07,0.11 -0.031,0.03 -0.069,0.053 -0.114,0.069 C 0.441,-0.008 0.39,0 0.331,0 Z m 0.048,-0.087 h 0.139 c 0.044,0 0.082,-0.005 0.115,-0.016 0.032,-0.012 0.059,-0.028 0.081,-0.05 0.022,-0.022 0.038,-0.05 0.049,-0.083 0.011,-0.034 0.016,-0.073 0.016,-0.117 0,-0.089 -0.022,-0.155 -0.065,-0.199 C 0.477,-0.596 0.412,-0.618 0.325,-0.618 H 0.186 Z"
   style="fill:#ffffff;fill-rule:nonzero"
   id="path6" />
            </g>
            <g
   transform="matrix(352.89091,0,0,352.89091,1422.5298,745.92482)"
   id="g8"
   style="fill:#ffffff">
                <path
   d="M 0.138,0 C 0.12,0 0.106,-0.005 0.097,-0.014 0.087,-0.024 0.083,-0.038 0.083,-0.056 v -0.593 c 0,-0.018 0.004,-0.032 0.014,-0.042 C 0.106,-0.7 0.12,-0.705 0.138,-0.705 h 0.365 c 0.014,0 0.024,0.004 0.032,0.011 0.007,0.007 0.011,0.017 0.011,0.03 0,0.014 -0.004,0.024 -0.011,0.032 -0.008,0.007 -0.018,0.011 -0.032,0.011 H 0.182 V -0.4 h 0.299 c 0.015,0 0.025,0.004 0.033,0.011 0.007,0.007 0.01,0.017 0.01,0.031 0,0.014 -0.003,0.024 -0.01,0.031 -0.008,0.007 -0.018,0.011 -0.033,0.011 H 0.182 v 0.232 h 0.321 c 0.014,0 0.024,0.004 0.032,0.011 0.007,0.007 0.011,0.017 0.011,0.031 0,0.014 -0.004,0.024 -0.011,0.031 C 0.527,-0.004 0.517,0 0.503,0 Z"
   style="fill:#ffffff;fill-rule:nonzero"
   id="path7" />
            </g>
            <g
   transform="matrix(352.89091,0,0,352.89091,1628.6212,745.92482)"
   id="g9"
   style="fill:#ffffff">
                <path
   d="M 0.35,0.007 C 0.335,0.007 0.323,0.004 0.314,-0.003 0.304,-0.01 0.296,-0.021 0.29,-0.035 L 0.021,-0.644 C 0.015,-0.658 0.014,-0.67 0.017,-0.68 c 0.002,-0.01 0.008,-0.018 0.017,-0.024 0.008,-0.006 0.018,-0.008 0.03,-0.008 0.016,0 0.027,0.003 0.035,0.01 0.008,0.007 0.015,0.017 0.02,0.03 l 0.252,0.584 H 0.334 l 0.25,-0.585 c 0.006,-0.013 0.013,-0.022 0.022,-0.029 0.008,-0.007 0.019,-0.01 0.034,-0.01 0.012,0 0.022,0.003 0.029,0.008 0.008,0.006 0.013,0.014 0.015,0.024 0.002,0.01 0,0.022 -0.006,0.036 L 0.41,-0.035 C 0.404,-0.021 0.396,-0.01 0.387,-0.003 0.378,0.004 0.366,0.007 0.35,0.007 Z"
   style="fill:#ffffff;fill-rule:nonzero"
   id="path8" />
            </g>
            <g
   transform="matrix(352.89091,0,0,352.89091,1875.6421,745.92482)"
   id="g10"
   style="fill:#ffffff">
                <path
   d="M 0.134,0.007 C 0.117,0.007 0.105,0.003 0.096,-0.007 0.087,-0.016 0.083,-0.029 0.083,-0.046 v -0.606 c 0,-0.018 0.004,-0.031 0.013,-0.04 0.01,-0.009 0.022,-0.013 0.039,-0.013 h 0.239 c 0.076,0 0.135,0.018 0.176,0.054 0.041,0.036 0.062,0.087 0.062,0.153 0,0.043 -0.009,0.079 -0.028,0.11 -0.019,0.03 -0.046,0.054 -0.081,0.07 -0.036,0.016 -0.079,0.024 -0.129,0.024 l 0.009,-0.014 h 0.026 c 0.027,0 0.05,0.007 0.07,0.02 0.02,0.014 0.037,0.035 0.053,0.064 l 0.086,0.16 c 0.007,0.012 0.01,0.023 0.009,0.034 0,0.011 -0.004,0.02 -0.012,0.027 C 0.608,0.004 0.597,0.007 0.583,0.007 0.568,0.007 0.557,0.004 0.547,-0.002 0.538,-0.008 0.53,-0.018 0.523,-0.031 L 0.418,-0.225 C 0.404,-0.251 0.388,-0.269 0.37,-0.278 0.352,-0.286 0.328,-0.291 0.299,-0.291 H 0.186 v 0.245 c 0,0.017 -0.005,0.03 -0.013,0.039 -0.009,0.01 -0.022,0.014 -0.039,0.014 z m 0.052,-0.376 h 0.171 c 0.051,0 0.089,-0.011 0.115,-0.032 0.026,-0.022 0.039,-0.053 0.039,-0.095 0,-0.042 -0.013,-0.073 -0.039,-0.094 C 0.446,-0.611 0.408,-0.622 0.357,-0.622 H 0.186 Z"
   style="fill:#ffffff;fill-rule:nonzero"
   id="path9" />
            </g>
            <g
   transform="matrix(352.89091,0,0,352.89091,2114.5502,745.92482)"
   id="g11"
   style="fill:#ffffff">
                <path
   d="M 0.138,0 C 0.12,0 0.106,-0.005 0.097,-0.014 0.087,-0.024 0.083,-0.038 0.083,-0.056 v -0.593 c 0,-0.018 0.004,-0.032 0.014,-0.042 C 0.106,-0.7 0.12,-0.705 0.138,-0.705 h 0.365 c 0.014,0 0.024,0.004 0.032,0.011 0.007,0.007 0.011,0.017 0.011,0.03 0,0.014 -0.004,0.024 -0.011,0.032 -0.008,0.007 -0.018,0.011 -0.032,0.011 H 0.182 V -0.4 h 0.299 c 0.015,0 0.025,0.004 0.033,0.011 0.007,0.007 0.01,0.017 0.01,0.031 0,0.014 -0.003,0.024 -0.01,0.031 -0.008,0.007 -0.018,0.011 -0.033,0.011 H 0.182 v 0.232 h 0.321 c 0.014,0 0.024,0.004 0.032,0.011 0.007,0.007 0.011,0.017 0.011,0.031 0,0.014 -0.004,0.024 -0.011,0.031 C 0.527,-0.004 0.517,0 0.503,0 Z"
   style="fill:#ffffff;fill-rule:nonzero"
   id="path10" />
            </g>
            <g
   transform="matrix(352.89091,0,0,352.89091,2322.4068,745.92482)"
   id="g12"
   style="fill:#ffffff">
                <path
   d="M 0.135,0 C 0.118,0 0.106,-0.005 0.096,-0.014 0.087,-0.024 0.083,-0.037 0.083,-0.053 v -0.603 c 0,-0.018 0.004,-0.031 0.013,-0.04 0.009,-0.008 0.021,-0.013 0.038,-0.013 0.017,0 0.029,0.005 0.038,0.013 0.009,0.009 0.014,0.022 0.014,0.04 v 0.567 h 0.31 c 0.015,0 0.026,0.004 0.034,0.012 0.008,0.007 0.012,0.018 0.012,0.032 0,0.014 -0.004,0.025 -0.012,0.033 C 0.522,-0.004 0.511,0 0.496,0 Z"
   style="fill:#ffffff;fill-rule:nonzero"
   id="path11" />
            </g>
            
            
            <path
   d="m 1200.209,1115.7928 q -4.2347,0 -6.7049,-2.1173 -2.1173,-2.4702 -2.1173,-6.7049 V 873.70971 q 0,-4.23469 2.1173,-6.35203 2.4702,-2.47024 6.7049,-2.47024 h 131.9812 q 3.5289,0 5.2933,1.76445 2.1174,1.76446 2.1174,4.94048 0,3.52891 -2.1174,5.29336 -1.7644,1.76446 -5.2933,1.76446 h -125.982 v 101.98547 h 118.9242 q 3.5289,0 5.2934,1.76448 2.1173,1.7644 2.1173,4.94042 0,3.52897 -2.1173,5.29337 -1.7645,1.76448 -5.2934,1.76448 h -118.9242 v 112.57219 q 0,8.8222 -5.9992,8.8222 z"
   id="path16"
   style="font-weight:200;font-size:395.833px;font-family:Nunito-ExtraLight, Nunito;fill:#ffffff;stroke-width:0.891515" /><path
   d="m 1471.9352,1116.4987 q -33.5247,0 -57.8741,-15.5272 -24.3495,-15.5272 -37.7594,-44.1114 -13.057,-28.5841 -13.057,-67.75505 0,-29.64285 7.4108,-52.93364 7.4107,-23.6437 21.5263,-39.87667 14.1156,-16.58589 34.2304,-25.40815 20.1148,-8.82228 45.523,-8.82228 33.8775,0 58.2269,15.52721 24.7024,15.17431 37.7594,43.75847 13.057,28.23127 13.057,67.40219 0,29.64282 -7.7636,53.28642 -7.4107,23.6438 -21.5264,40.2296 -14.1156,16.586 -34.2304,25.4082 -20.1148,8.8223 -45.5229,8.8223 z m 0,-14.4685 q 29.6428,0 50.4634,-13.0571 20.8206,-13.4098 31.7602,-38.4651 10.9396,-25.4081 10.9396,-61.40295 0,-53.63943 -24.3495,-82.92937 -23.9966,-29.64284 -68.8137,-29.64284 -29.29,0 -50.1105,13.40985 -20.8207,13.05697 -31.7603,38.46512 -10.9395,25.05525 -10.9395,60.69724 0,53.28655 24.3494,83.28225 24.3495,29.6429 68.4609,29.6429 z"
   id="path17"
   style="font-weight:200;font-size:395.833px;font-family:Nunito-ExtraLight, Nunito;fill:#ffffff;stroke-width:0.891515" /><path
   id="path29"
   style="font-weight:200;font-size:395.833px;font-family:Nunito-ExtraLight, Nunito;fill:#ffffff;stroke-width:0.891515"
   d="m 2159.7193,1113.6755 q -4.2347,0 -6.705,-2.1173 -2.1174,-2.4703 -2.1174,-6.705 V 873.70971 q 0,-4.23469 2.1174,-6.35203 2.4703,-2.47024 6.705,-2.47024 h 67.755 q 58.5799,0 89.9872,31.76018 31.7602,31.4073 31.7602,92.45743 0,30.34855 -8.1165,53.63945 -8.1165,23.2908 -23.6437,39.1709 -15.5272,15.5271 -38.1122,23.6437 -22.585,8.1164 -51.875,8.1164 z m 5.9991,-13.7627 h 60.3444 q 26.8197,0 46.9345,-7.0578 20.1148,-7.0579 33.5246,-20.8205 13.4099,-13.7628 20.1148,-34.5834 6.7049,-20.8205 6.7049,-48.34605 0,-55.05099 -26.8197,-82.57648 -26.8197,-27.87838 -80.4591,-27.87838 h -60.3444 z" /><path
   style="font-weight:200;font-size:395.833px;font-family:Nunito-ExtraLight, Nunito;fill:#ffffff;stroke-width:0.891515"
   d="m 1899.6385,1115.7928 c -2.1173,0 -3.8818,-0.7058 -5.2933,-2.1173 -1.1763,-1.4115 -1.7644,-3.2936 -1.7644,-5.6462 V 870.88659 c 0,-2.58787 0.5881,-4.58759 1.7644,-5.99915 1.1763,-1.41156 2.7055,-2.11735 4.5876,-2.11735 2.1173,0 3.6466,0.35289 4.5876,1.05868 1.1763,0.70578 2.3526,1.99971 3.5288,3.88179 l 162.374,219.37154 -0.045,11.7721 V 870.5337 c 0,-2.58787 0.5882,-4.46996 1.7645,-5.64626 1.4116,-1.41156 3.176,-2.11735 5.2934,-2.11735 2.1173,0 3.7641,0.70579 4.9404,2.11735 1.1764,1.1763 1.7645,3.05839 1.7645,5.64626 v 237.1427 c 0,2.5879 -0.5881,4.5876 -1.7645,5.9991 -0.941,1.4115 -2.3526,2.1173 -4.2347,2.1173 -1.6468,0 -3.176,-0.4705 -4.5875,-1.4115 -1.1764,-0.7058 -2.3527,-1.8821 -3.5289,-3.5289 l -162.567,-221.68727 -0.1157,-9.45628 v 228.32045 c 0,2.3526 -0.5882,4.2347 -1.7645,5.6462 -1.1764,1.4115 -2.8232,2.1173 -4.9405,2.1173 z"
   id="path28" /><path
   style="font-weight:200;font-size:395.833px;font-family:Nunito-ExtraLight, Nunito;fill:#ffffff;stroke-width:0.891515"
   d="m 1731.6627,1116.4987 q -23.2908,0 -41.2882,-6.3521 -17.6445,-6.352 -29.6429,-18.7032 -11.6454,-12.704 -17.9974,-31.0544 -5.9992,-18.3504 -5.9992,-42.3469 V 870.5337 q 0,-3.88181 1.7645,-5.64626 2.1174,-2.11735 5.6463,-2.11735 3.5288,0 5.2933,2.11735 2.1174,1.76445 2.1174,5.64626 v 145.391 q 0,43.4057 20.1148,64.932 20.4676,21.1735 59.9914,21.1735 39.8767,0 59.9915,-21.1735 20.1148,-21.5263 20.1148,-64.932 v -145.391 q 0,-3.88181 1.7644,-5.64626 2.1173,-2.11735 5.6463,-2.11735 3.5289,0 5.2934,2.11735 2.1173,1.76445 2.1173,5.64626 v 147.5084 q 0,31.7602 -10.9397,53.9924 -10.5867,21.8791 -31.7601,33.1717 -21.1735,11.2925 -52.2279,11.2925 z"
   id="path18" /><path
   style="font-weight:200;font-size:395.833px;font-family:Nunito-ExtraLight, Nunito;fill:#ffffff;stroke-width:0.891515"
   d="m 2698.946,1115.7928 q -3.5288,0 -5.6462,-2.1173 -1.7645,-2.1173 -1.7645,-5.6462 V 878.65019 h -89.2814 q -3.5289,0 -5.6463,-1.76446 -2.1173,-2.11735 -2.1173,-5.29336 0,-3.17602 2.1173,-4.94048 2.1174,-1.76445 5.6463,-1.76445 h 193.3842 q 3.8818,0 5.6463,1.76445 2.1174,1.76446 2.1174,4.94048 0,3.52891 -2.1174,5.29336 -1.7645,1.76446 -5.6463,1.76446 h -89.2814 v 229.37911 q 0,3.5289 -1.7644,5.6462 -1.7645,2.1173 -5.6463,2.1173 z"
   id="path24" /><path
   id="path19"
   style="font-weight:200;font-size:395.833px;font-family:Nunito-ExtraLight, Nunito;fill:#ffffff;stroke-width:0.891515"
   d="m 2391.2242,1115.7928 c -2.3526,0 -4.1171,-0.4705 -5.2933,-1.4115 -1.1764,-0.941 -1.7645,-2.2349 -1.7645,-3.8817 0,-1.8821 0.4705,-3.8819 1.4116,-5.9992 l 100.9268,-234.3196 c 1.1763,-2.58786 2.5879,-4.46995 4.2347,-5.64625 1.6468,-1.17631 3.2936,-1.76446 4.9404,-1.76446 1.8821,0 3.6466,0.58815 5.2934,1.76446 1.6469,1.1763 2.9408,3.05839 3.8818,5.64625 l 100.9268,234.3196 c 0.941,2.1173 1.4116,4.1171 1.4116,5.9992 0,1.6468 -0.4706,2.9407 -1.4116,3.8817 -0.941,0.941 -2.5878,1.4115 -4.9405,1.4115 -2.3526,0 -4.3522,-0.7058 -5.9991,-2.1173 -1.4116,-1.4115 -2.5879,-3.1759 -3.5289,-5.2933 l -28.5842,-66.6964 1.2938,2.9701 -136.9803,-0.2058 1.235,-2.7643 -28.5841,66.6964 c -0.9411,2.5878 -2.235,4.4699 -3.8818,5.6462 -1.6468,1.1763 -3.176,1.7644 -4.5876,1.7644 z m 104.1028,-230.79058 -63.1674,148.21418 0.6764,-2.1174 125.3938,0.2059 0.9705,1.9115 -63.1675,-148.21418 z" /><path
   id="path27"
   style="font-weight:200;font-size:395.833px;font-family:Nunito-ExtraLight, Nunito;fill:#ffffff;stroke-width:0.891515"
   d="m 3190.8757,1115.7928 c -2.1174,0 -3.8818,-0.7058 -5.2934,-2.1173 -1.1763,-1.4115 -1.7645,-3.2936 -1.7645,-5.6462 V 870.88659 c 0,-2.58787 0.5882,-4.58759 1.7645,-5.99915 1.1763,-1.41156 2.7055,-2.11735 4.5876,-2.11735 2.1173,0 3.6465,0.35289 4.5875,1.05868 1.1764,0.70578 2.3527,1.99971 3.529,3.88179 l 161.7581,219.97064 -0.072,9.8846 0.6442,-227.0321 c 0.01,-2.58786 0.5881,-4.46996 1.7644,-5.64626 1.4115,-1.41156 3.176,-2.11735 5.2934,-2.11735 2.1173,0 3.7641,0.70579 4.9405,2.11735 1.1763,1.1763 1.7644,3.05839 1.7644,5.64626 v 237.1427 c 0,2.5879 -0.5881,4.5876 -1.7644,5.9991 -0.9411,1.4115 -2.3526,2.1173 -4.2347,2.1173 -1.6469,0 -3.1761,-0.4705 -4.5877,-1.4115 -1.1762,-0.7058 -2.3525,-1.8821 -3.5288,-3.5289 l -162.6448,-222.8082 -0.038,-7.8033 v 227.7884 c 0,2.3526 -0.5881,4.2347 -1.7645,5.6462 -1.1762,1.4115 -2.823,2.1173 -4.9404,2.1173 z" /><path
   id="path25"
   style="font-weight:200;font-size:395.833px;font-family:Nunito-ExtraLight, Nunito;fill:#ffffff;stroke-width:0.891515"
   d="m 3017.2535,1116.4987 q -33.5246,0 -57.8741,-15.5272 -24.3495,-15.5272 -37.7593,-44.1114 -13.057,-28.5841 -13.057,-67.75505 0,-29.64285 7.4108,-52.93364 7.4107,-23.6437 21.5263,-39.87667 14.1156,-16.58589 34.2304,-25.40815 20.1148,-8.82228 45.5229,-8.82228 33.8775,0 58.227,15.52721 24.7024,15.17431 37.7593,43.75847 13.057,28.23127 13.057,67.40219 0,29.64282 -7.7636,53.28642 -7.4107,23.6438 -21.5263,40.2296 -14.1156,16.586 -34.2304,25.4082 -20.1148,8.8223 -45.523,8.8223 z m 0,-14.4685 q 29.6429,0 50.4635,-13.0571 20.8205,-13.4098 31.7601,-38.4651 10.9397,-25.4081 10.9397,-61.40295 0,-53.63943 -24.3495,-82.92937 -23.9967,-29.64284 -68.8138,-29.64284 -29.2899,0 -50.1105,13.40985 -20.8206,13.05697 -31.7602,38.46512 -10.9396,25.05525 -10.9396,60.69724 0,53.28655 24.3495,83.28225 24.3494,29.6429 68.4608,29.6429 z" /><path
   style="font-weight:200;font-size:395.833px;font-family:Nunito-ExtraLight, Nunito;fill:#ffffff;stroke-width:0.891515"
   d="m 2843.6315,1115.7928 q -3.5289,0 -5.6463,-2.1173 -1.7645,-2.1173 -1.7645,-5.6462 V 870.5337 q 0,-3.88181 1.7645,-5.64626 2.1174,-2.11735 5.6463,-2.11735 3.5288,0 5.2933,2.11735 2.1174,1.76445 2.1174,5.64626 v 237.4956 q 0,3.5289 -1.7645,5.6462 -1.7644,2.1173 -5.6462,2.1173 z"
   id="path20" />
        </g>
    </g>
</svg>
